{"title":"The Coroner S01E01 - First Love x264 RB58.mp4","uid":12772867,"size":513928863,"categoryP":"video","categoryS":"tv_shows","magnet":"?xt=urn:btih:ff6e02d44b42b66b67016473113973956ae51ad6&amp;dn=The+Coroner+S01E01+-+First+Love+x264+RB58.mp4&amp;tr=udp%3A%2F%2Ftracker.leechers-paradise.org%3A6969&amp;tr=udp%3A%2F%2Fzer0day.ch%3A1337&amp;tr=udp%3A%2F%2Fopen.demonii.com%3A1337&amp;tr=udp%3A%2F%2Ftracker.coppersurfer.tk%3A6969&amp;tr=udp%3A%2F%2Fexodus.desync.com%3A6969","seeders":1,"leechers":0,"uploader":"RedBaron58","files":1,"time":1447702572,"description":"The Coroner (2015) S01E01 - First Love x264 mp4\r\n \nhttp://www.imdb.com/title/tt5194866/\r\n\r\nNo Trailer at Present\r\n\r\n\r\nPlease be patient My intial upload speed is limited.\r\nThank you for your kind comments and feedback on my other torrents, your feedback is welcome.\r\n\r\n\r\nAbout the Episode:\r\nCrime drama following high-flying solicitor Jane Kennedy as she takes over the job of coroner in \r\nthe English coastal town she escaped from as a teenager. \r\nA teenager is found dead at the foot of a tower and DS Davey Higgins believes it was a suicide, \r\nbut Jane thinks there is more to the case than meets the eye. \r\n \r\nStarring Claire Goose and Matt Bardock\r\n\r\n\r\nI hope you enjoy.\r\n\r\n\r\nTechnical:\r\n\r\nGeneral\r\nComplete name                            : H:The Coroner S01E01 - First Love x264 RB58.mp4\r\nFormat                                   : MPEG-4\r\nFormat profile                           : Base Media\r\nCodec ID                                 : isom\r\nFile size                                : 490 MiB\r\nDuration                                 : 44mn 56s\r\nOverall bit rate                         : 1 525 Kbps\r\nWriting application                      : Lavf54.63.104\r\n\r\nVideo\r\nID                                       : 1\r\nFormat                                   : AVC\r\nFormat/Info                              : Advanced Video Codec\r\nFormat profile                           :   \r\nFormat settings, CABAC                   : Yes\r\nFormat settings, ReFrames                : 4 frames\r\nCodec ID                                 : avc1\r\nCodec ID/Info                            : Advanced Video Coding\r\nDuration                                 : 44mn 56s\r\nBit rate                                 : 1 400 Kbps\r\nWidth                                    : 832 pixels\r\nHeight                                   : 468 pixels\r\nDisplay aspect ratio                     : 16:9\r\nFrame rate mode                          : Constant\r\nFrame rate                               : 25.000 fps\r\nColor space                              : YUV\r\nChroma subsampling                       : 4:2:0\r\nBit depth                                : 8 bits\r\nScan type                                : Progressive\r\nBits/(Pixel*Frame)                       : 0.144\r\nStream size                              : 450 MiB (92%)\r\nWriting library                          : x264 core 123 r2189 35cf912\r\nEncoding settings                        : cabac=1 / ref=3 / deblock=1:0:0\r\n\r\nAudio\r\nID                                       : 2\r\nFormat                                   : AAC\r\nFormat/Info                              : Advanced Audio Codec\r\nFormat profile                           : LC\r\nCodec ID                                 : 40\r\nDuration                                 : 44mn 56s\r\nBit rate mode                            : Constant\r\nBit rate                                 : 117 Kbps\r\nChannel(s)                               : 2 channels\r\nChannel positions                        : Front: L R\r\nSampling rate                            : 48.0 KHz\r\nCompression mode                         : Lossy\r\nStream size                              : 37.7 MiB (8%)","torrent":{"xt":"urn:btih:ff6e02d44b42b66b67016473113973956ae51ad6","amp;dn":"The+Coroner+S01E01+-+First+Love+x264+RB58.mp4","amp;tr":["udp%3A%2F%2Ftracker.leechers-paradise.org%3A6969","udp%3A%2F%2Fzer0day.ch%3A1337","udp%3A%2F%2Fopen.demonii.com%3A1337","udp%3A%2F%2Ftracker.coppersurfer.tk%3A6969","udp%3A%2F%2Fexodus.desync.com%3A6969"],"infoHash":"ff6e02d44b42b66b67016473113973956ae51ad6","infoHashBuffer":{"type":"Buffer","data":[255,110,2,212,75,66,182,107,103,1,100,115,17,57,115,149,106,229,26,214]},"announce":[],"urlList":[]}}